<?xml version="1.0" encoding="UTF-8"?>
<svg id="_图层_2" data-name="图层 2" xmlns="http://www.w3.org/2000/svg" xmlns:xlink="http://www.w3.org/1999/xlink" viewBox="0 0 445.33 138.74">
  <defs>
    <style>
      .cls-1, .cls-2, .cls-3, .cls-4, .cls-5, .cls-6, .cls-7, .cls-8, .cls-9 {
        fill: #231815;
      }

      .cls-2, .cls-10, .cls-11, .cls-12, .cls-13, .cls-14 {
        letter-spacing: 0em;
      }

      .cls-15, .cls-16, .cls-17 {
        font-family: Consolas, Consolas;
      }

      .cls-18, .cls-19, .cls-20, .cls-21, .cls-22, .cls-23, .cls-24, .cls-25, .cls-6, .cls-26, .cls-27, .cls-28, .cls-29, .cls-7, .cls-30, .cls-31, .cls-32, .cls-33, .cls-34 {
        stroke-miterlimit: 10;
      }

      .cls-18, .cls-19, .cls-20, .cls-21, .cls-22, .cls-23, .cls-24, .cls-25, .cls-6, .cls-26, .cls-27, .cls-28, .cls-29, .cls-7, .cls-31, .cls-32, .cls-33 {
        stroke: #231815;
      }

      .cls-18, .cls-19, .cls-20, .cls-22, .cls-23, .cls-35, .cls-24, .cls-28, .cls-30, .cls-32, .cls-34, .cls-36 {
        fill: none;
      }

      .cls-18, .cls-22 {
        stroke-width: .25px;
      }

      .cls-37 {
        letter-spacing: -.07em;
      }

      .cls-10 {
        fill: #601986;
      }

      .cls-38 {
        fill: #9b1e23;
      }

      .cls-38, .cls-4, .cls-39, .cls-40, .cls-41, .cls-42 {
        letter-spacing: 0em;
      }

      .cls-19 {
        stroke-dasharray: 0 0 2.98 2.98;
      }

      .cls-19, .cls-20, .cls-21, .cls-23, .cls-24, .cls-25, .cls-26, .cls-27, .cls-28, .cls-33 {
        stroke-width: .5px;
      }

      .cls-3, .cls-43, .cls-16 {
        font-size: 5px;
      }

      .cls-20 {
        stroke-dasharray: 0 0 2 2;
      }

      .cls-21, .cls-31 {
        fill: #a0d199;
      }

      .cls-44 {
        letter-spacing: -.07em;
      }

      .cls-45 {
        letter-spacing: -.02em;
      }

      .cls-46 {
        font-size: 8px;
      }

      .cls-46, .cls-5, .cls-9 {
        font-family: TimesNewRomanPS-BoldMT, 'Times New Roman';
        font-weight: 700;
      }

      .cls-46, .cls-25, .cls-29, .cls-47, .cls-33 {
        fill: #fff;
      }

      .cls-11, .cls-48, .cls-39, .cls-49, .cls-17 {
        fill: #17499d;
      }

      .cls-48, .cls-5, .cls-17 {
        font-size: 7px;
      }

      .cls-22 {
        stroke-dasharray: 0 0 2.96 2.96;
      }

      .cls-23 {
        stroke-dasharray: 0 0 2 2;
      }

      .cls-35, .cls-50, .cls-51, .cls-52, .cls-53, .cls-54, .cls-47, .cls-8 {
        stroke-width: 0px;
      }

      .cls-24 {
        stroke-dasharray: 0 0 1.99 1.99;
      }

      .cls-50 {
        fill: #1b264b;
      }

      .cls-51 {
        fill: #2d2e2e;
      }

      .cls-12, .cls-42 {
        fill: #765d26;
      }

      .cls-6 {
        stroke-width: .75px;
      }

      .cls-52 {
        fill: #292d32;
      }

      .cls-13, .cls-40 {
        fill: #1e2d5f;
      }

      .cls-26 {
        fill: #ecbe74;
      }

      .cls-27 {
        fill: #ecbf74;
      }

      .cls-53 {
        fill: #c98b5b;
      }

      .cls-28 {
        stroke-dasharray: 0 0 2 2;
      }

      .cls-54 {
        fill: #9fbd5f;
      }

      .cls-55 {
        clip-path: url(#clippath);
      }

      .cls-14, .cls-41 {
        fill: #267a92;
      }

      .cls-29 {
        stroke-width: .74px;
      }

      .cls-30 {
        stroke-dasharray: 0 0 1.48 1.48;
        stroke-width: 1.09px;
      }

      .cls-30, .cls-34 {
        stroke: #e60012;
      }

      .cls-31 {
        stroke-width: .48px;
      }

      .cls-56 {
        letter-spacing: -.06em;
      }

      .cls-57 {
        letter-spacing: -.02em;
      }

      .cls-33 {
        stroke-dasharray: 0 2;
      }

      .cls-9 {
        font-size: 6.82px;
      }

      .cls-34 {
        stroke-dasharray: 0 0 1.44 1.44;
        stroke-width: .94px;
      }

      .cls-36 {
        stroke: #040000;
        stroke-linecap: round;
        stroke-linejoin: round;
        stroke-width: 2px;
      }
    </style>
    <clipPath id="clippath">
      <rect class="cls-35" x="416.75" y="6.22" width="19" height="19"/>
    </clipPath>
  </defs>
  <g id="Overview">
    <g id="Input">
      <g>
        <rect class="cls-47" x=".25" y="3.72" width="171" height="132" rx="5.67" ry="5.67"/>
        <rect class="cls-28" x=".25" y="3.72" width="171" height="132" rx="5.67" ry="5.67"/>
      </g>
      <text id="public_static_String_migrate_String_xml_Document_xmlDoc_try_SAXReader_reader_new_SAXRea" data-name="public static String migrate(String xml) { 	Document xmlDoc; 	try { 		SAXReader reader = new SAXRea" class="cls-16" transform="translate(7.01 36.76)"><tspan class="cls-49" x="0" y="0">public static</tspan><tspan class="cls-4" x="35.74" y="0"> </tspan><tspan class="cls-14" x="38.49" y="0">String</tspan><tspan class="cls-2" x="54.98" y="0"> </tspan><tspan class="cls-42" x="57.73" y="0">migrate</tspan><tspan class="cls-2" x="76.97" y="0">(</tspan><tspan class="cls-41" x="79.72" y="0">String</tspan><tspan class="cls-4" x="96.22" y="0"> </tspan><tspan class="cls-13" x="98.97" y="0">xml</tspan><tspan class="cls-4" x="107.21" y="0">) {</tspan><tspan class="cls-1" x="0" y="6" xml:space="preserve">   </tspan><tspan class="cls-41" x="8.25" y="6">Document</tspan><tspan class="cls-4" x="30.24" y="6"> </tspan><tspan class="cls-13" x="32.99" y="6">xmlDoc</tspan><tspan class="cls-2" x="49.48" y="6">;</tspan><tspan class="cls-1" x="0" y="12" xml:space="preserve">   </tspan><tspan class="cls-39" x="8.25" y="12">try</tspan><tspan class="cls-10" x="16.49" y="12"> </tspan><tspan class="cls-4" x="19.24" y="12">{</tspan><tspan class="cls-1" x="0" y="18" xml:space="preserve">     </tspan><tspan class="cls-40" x="13.74" y="18">xmlDoc </tspan><tspan class="cls-2" x="32.99" y="18">= </tspan><tspan class="cls-11" x="38.49" y="18">new</tspan><tspan class="cls-4" x="46.73" y="18"> </tspan><tspan class="cls-14" x="49.48" y="18">SAXReader</tspan><tspan class="cls-4" x="74.22" y="18">().</tspan><tspan class="cls-12" x="82.47" y="18">read</tspan><tspan class="cls-2" x="93.47" y="18">(</tspan><tspan class="cls-39" x="96.22" y="18">new</tspan><tspan class="cls-2" x="104.46" y="18"> </tspan><tspan class="cls-41" x="107.21" y="18">StringReader</tspan><tspan class="cls-4" x="140.2" y="18">(</tspan><tspan class="cls-13" x="142.95" y="18">xml</tspan><tspan class="cls-4" x="151.2" y="18">));</tspan><tspan class="cls-1" x="0" y="24" xml:space="preserve">   } </tspan><tspan class="cls-39" x="13.74" y="24">...</tspan><tspan class="cls-1"><tspan x="0" y="30">}</tspan></tspan></text>
      <text id="public_static_String_migrate_String_xml_Document_xmlDoc_try_SAXReader_reader_new_SAXRea-2" data-name="public static String migrate(String xml) { 	Document xmlDoc; 	try { 		SAXReader reader = new SAXRea" class="cls-16" transform="translate(6.12 80.62)"><tspan class="cls-49" x="0" y="0">public static</tspan><tspan class="cls-4" x="35.74" y="0"> </tspan><tspan class="cls-14" x="38.49" y="0">String</tspan><tspan class="cls-2" x="54.98" y="0"> </tspan><tspan class="cls-42" x="57.73" y="0">migrate</tspan><tspan class="cls-2" x="76.97" y="0">(</tspan><tspan class="cls-41" x="79.72" y="0">String</tspan><tspan class="cls-4" x="96.22" y="0"> </tspan><tspan class="cls-13" x="98.97" y="0">xml</tspan><tspan class="cls-4" x="107.21" y="0">) {</tspan><tspan class="cls-1" x="0" y="6" xml:space="preserve">   </tspan><tspan class="cls-41" x="8.25" y="6">Document</tspan><tspan class="cls-4" x="30.24" y="6"> </tspan><tspan class="cls-13" x="32.99" y="6">xmlDoc</tspan><tspan class="cls-2" x="49.48" y="6">;</tspan><tspan class="cls-1" x="0" y="12" xml:space="preserve">   </tspan><tspan class="cls-39" x="8.25" y="12">try</tspan><tspan class="cls-10" x="16.49" y="12"> </tspan><tspan class="cls-4" x="19.24" y="12">{</tspan><tspan class="cls-1" x="0" y="18" xml:space="preserve">     </tspan><tspan class="cls-41" x="13.74" y="18">SAXReader</tspan><tspan class="cls-2" x="38.49" y="18"> </tspan><tspan class="cls-40" x="41.23" y="18">reader</tspan><tspan class="cls-4" x="57.73" y="18" xml:space="preserve"> = </tspan><tspan class="cls-11" x="65.98" y="18">new</tspan><tspan class="cls-4" x="74.22" y="18"> </tspan><tspan class="cls-14" x="76.97" y="18">SAXReader</tspan><tspan class="cls-4" x="101.71" y="18">();</tspan><tspan class="cls-1" x="0" y="24" xml:space="preserve">     </tspan><tspan class="cls-40" x="13.74" y="24">reader</tspan><tspan class="cls-4" x="30.24" y="24">.</tspan><tspan class="cls-12" x="32.99" y="24">setFeature</tspan><tspan class="cls-2" x="60.48" y="24">(</tspan><tspan class="cls-38" x="63.23" y="24">&quot;http://apache.org/xml/...&quot;</tspan><tspan class="cls-2" x="137.45" y="24">, </tspan><tspan class="cls-11" x="142.95" y="24">true</tspan><tspan class="cls-2" x="153.95" y="24">);</tspan><tspan class="cls-1" x="0" y="30" xml:space="preserve">     </tspan><tspan class="cls-40" x="13.74" y="30">xmlDoc</tspan><tspan class="cls-4" x="30.24" y="30" xml:space="preserve"> = </tspan><tspan class="cls-13" x="38.49" y="30">reader</tspan><tspan class="cls-2" x="54.98" y="30">.</tspan><tspan class="cls-42" x="57.73" y="30">read</tspan><tspan class="cls-4" x="68.73" y="30">(</tspan><tspan class="cls-11" x="71.48" y="30">new </tspan><tspan class="cls-14" x="82.47" y="30">StringReader</tspan><tspan class="cls-2" x="115.46" y="30">(</tspan><tspan class="cls-40" x="118.21" y="30">xml</tspan><tspan class="cls-2" x="126.46" y="30">));</tspan><tspan class="cls-1"><tspan x="0" y="36" xml:space="preserve">   } ...</tspan></tspan><tspan class="cls-1"><tspan x="0" y="42">}</tspan></tspan></text>
      <path class="cls-30" d="M165.42,125.72H5.09c-1.57,0-2.83-.81-2.83-1.81v-48.73c0-1,1.27-1.82,2.84-2.46h160.33c1.57.64,2.84,1.46,2.84,2.46v48.73c0,1-1.27,1.81-2.83,1.81Z"/>
      <rect class="cls-34" x="2.25" y="29.72" width="166" height="40" rx="2.83" ry="2.83"/>
      <text id="public_static_String_migrate_String_xml_Document_xmlDoc_try_SAXReader_reader_new_SAXRea-3" data-name="public static String migrate(String xml) { 	Document xmlDoc; 	try { 		SAXReader reader = new SAXRea" class="cls-16" transform="translate(13.6 20.96)"><tspan class="cls-1"><tspan x="0" y="0">(optional) Description: XXE (XML External Entity) is an </tspan></tspan><tspan class="cls-1" x="0" y="6">attack that exploits a vulnerability ...</tspan><tspan class="cls-49" x="109.96" y="6"> </tspan></text>
      <text id="public_static_String_migrate_String_xml_Document_xmlDoc_try_SAXReader_reader_new_SAXRea-4" data-name="public static String migrate(String xml) { 	Document xmlDoc; 	try { 		SAXReader reader = new SAXRea" class="cls-17" transform="translate(19.35 13.21)"><tspan x="0" y="0">Defect</tspan></text>
      <text class="cls-5" transform="translate(47.37 132.3)"><tspan x="0" y="0">Bug-Fix Instance Input</tspan></text>
      <g>
        <path class="cls-50" d="M8.15,5.12c.03-.22-.12-.44-.35-.5-.22-.06-.43.07-.46.29l-.27,1.84c-.27.1-.52.26-.73.47s-.37.46-.47.73l-1.84.27c-.22.03-.35.24-.29.46.06.22.28.38.5.35l1.49-.22c0,.51.18,1.04.51,1.49.11-.2.25-.39.42-.56l2.21-2.21c.17-.17.36-.31.56-.42-.46-.33-.98-.5-1.49-.51l.22-1.49Z"/>
        <path class="cls-50" d="M6.91,15.55c-.17-.17-.18-.42-.03-.57l1.08-1.08-.53-.53c-.34-.34-.56-.74-.65-1.16l-1.3.49c-.2.08-.44-.03-.54-.24-.1-.21-.02-.44.18-.52l1.64-.63c.07-.36.24-.69.5-.96l2.21-2.21c.27-.27.6-.43.96-.5l.62-1.64c.08-.2.31-.28.52-.18.21.1.32.34.24.54l-.49,1.3c.42.1.82.32,1.16.65l.53.53,1.08-1.08c.15-.15.41-.14.57.03s.18.42.03.57l-1.08,1.08.1.1c.48.48.82,1.03,1.03,1.61l1.35-.52c.2-.08.44.03.54.24.1.21.02.44-.18.52l-1.51.58c.13.94-.09,1.89-.67,2.63l-2.81-2.81c-.17-.17-.42-.18-.57-.03s-.14.41.03.57l2.81,2.81c-.74.58-1.69.8-2.63.67l-.58,1.51c-.08.2-.31.28-.52.18-.21-.1-.32-.34-.24-.54l.52-1.35c-.58-.21-1.14-.55-1.61-1.03l-.1-.1-1.08,1.08c-.15.15-.41.14-.57-.03Z"/>
      </g>
      <g>
        <rect class="cls-47" x="185.25" y="2.72" width="210" height="67" rx="5.67" ry="5.67"/>
        <rect class="cls-23" x="185.25" y="2.72" width="210" height="67" rx="5.67" ry="5.67"/>
      </g>
      <text class="cls-5" transform="translate(235.88 10.03)"><tspan x="0" y="0">Intent-</tspan><tspan class="cls-37" x="20.61" y="0">A</tspan><tspan x="25.15" y="0">wa</tspan><tspan class="cls-57" x="33.7" y="0">r</tspan><tspan x="36.68" y="0">e Constraint Construction</tspan></text>
      <g>
        <rect class="cls-47" x="408.11" y="2.44" width="36.97" height="136.05" rx="5.67" ry="5.67"/>
        <rect class="cls-20" x="408.11" y="2.44" width="36.97" height="136.05" rx="5.67" ry="5.67"/>
      </g>
    </g>
    <g id="Intent-Aware">
      <rect class="cls-21" x="191.25" y="15.72" width="52" height="28" rx="2.83" ry="2.83"/>
      <g>
        <path class="cls-8" d="M203.68,24.13v1.9h.13c.21,0,.37-.03.5-.09s.24-.17.33-.31c.09-.15.15-.34.18-.59h.12v2.33h-.12c-.04-.44-.16-.73-.35-.87-.19-.14-.41-.21-.65-.21h-.13v1.42c0,.24.01.38.04.44.03.06.08.11.15.16.08.04.18.07.31.07h.15v.13h-2.42v-.13h.15c.13,0,.24-.02.32-.07.06-.03.1-.09.14-.16.02-.05.04-.2.04-.43v-3.05c0-.24-.01-.38-.04-.44s-.08-.11-.15-.16c-.08-.04-.18-.07-.31-.07h-.15v-.13h3.91v1.33h-.14c-.03-.31-.11-.54-.24-.69-.13-.15-.32-.26-.57-.32-.14-.04-.39-.05-.76-.05h-.43Z"/>
        <path class="cls-8" d="M207.52,25.3v2.53c0,.23.03.37.08.43s.15.1.31.11v.12h-1.73v-.12c.14,0,.25-.05.31-.12.05-.05.07-.19.07-.42v-1.87c0-.23-.03-.37-.08-.43s-.15-.1-.3-.11v-.13h1.34ZM207.04,23.76c.15,0,.27.05.38.16s.15.23.15.37-.05.27-.16.37c-.1.1-.23.15-.37.15s-.27-.05-.37-.15-.15-.23-.15-.37.05-.27.15-.37.23-.16.37-.16Z"/>
        <path class="cls-8" d="M210.1,26.54l.55,1.05c.19.37.34.6.45.7.06.05.15.08.25.09v.12h-1.78v-.12c.14-.01.23-.03.26-.05.03-.03.05-.06.05-.1,0-.06-.04-.16-.11-.3l-.28-.52-.24.34c-.11.16-.17.25-.18.28-.02.04-.03.08-.03.12,0,.05.01.1.03.13.02.04.05.06.09.08.04.02.11.03.21.03v.12h-1.25v-.12c.15,0,.3-.04.43-.13.13-.09.32-.31.56-.67l.26-.39-.55-1.02c-.18-.33-.31-.54-.4-.61-.09-.07-.19-.12-.3-.13v-.13h1.77v.13h-.09s-.18.07-.18.07c-.02.02-.03.04-.03.08,0,.03,0,.07.02.11,0,.02.04.08.1.19l.25.46.13-.19c.18-.25.27-.43.27-.53,0-.05-.02-.09-.06-.12-.04-.03-.11-.05-.21-.07v-.13h1.13v.13c-.14,0-.27.05-.39.13s-.26.24-.41.47l-.33.51Z"/>
        <path class="cls-8" d="M215.79,28.37v.13h-2.42v-.13h.15c.13,0,.24-.02.32-.07.06-.03.1-.09.14-.16.02-.05.04-.2.04-.43v-3.05c0-.24-.01-.38-.04-.44s-.08-.11-.15-.16c-.08-.04-.18-.07-.31-.07h-.15v-.13h2.42v.13h-.15c-.13,0-.24.02-.32.07-.06.03-.11.09-.14.16-.02.05-.04.2-.04.43v3.05c0,.24.01.38.04.44.03.06.08.11.15.16.08.04.18.07.31.07h.15Z"/>
        <path class="cls-8" d="M217.49,25.3v.41c.16-.18.32-.31.47-.39s.31-.12.49-.12c.21,0,.38.06.52.17s.23.26.27.43c.04.13.05.38.05.75v1.24c0,.25.02.4.07.46.04.06.14.1.28.11v.12h-1.62v-.12c.12-.02.21-.07.26-.15.04-.06.05-.2.05-.42v-1.42c0-.26-.01-.43-.03-.5s-.06-.12-.1-.16c-.05-.04-.1-.06-.16-.06-.2,0-.38.14-.55.42v1.71c0,.24.02.39.07.46.04.06.13.1.25.12v.12h-1.62v-.12c.13-.01.23-.06.29-.13.04-.05.06-.2.06-.44v-1.8c0-.24-.02-.39-.07-.45-.04-.06-.14-.1-.28-.12v-.13h1.3Z"/>
        <path class="cls-8" d="M221.35,24.13v1.17h.76v.34h-.76v1.97c0,.18,0,.3.03.36.02.05.05.1.09.13s.08.05.12.05c.15,0,.29-.11.42-.34l.1.08c-.18.44-.48.66-.9.66-.2,0-.37-.06-.51-.17-.14-.11-.23-.24-.27-.38-.02-.08-.03-.29-.03-.63v-1.73h-.42v-.12c.29-.2.53-.42.73-.64.2-.22.38-.47.53-.75h.11Z"/>
        <path class="cls-8" d="M225.12,26.79h-1.75c.02.42.13.76.34,1.01.16.19.35.28.57.28.14,0,.26-.04.37-.11s.23-.21.36-.41l.12.08c-.17.35-.36.6-.57.75-.21.15-.45.22-.73.22-.47,0-.83-.18-1.08-.55-.2-.29-.29-.66-.29-1.09,0-.53.14-.96.43-1.27.29-.32.63-.47,1.01-.47.32,0,.6.13.84.4.24.27.37.66.38,1.18ZM224.28,26.56c0-.37-.02-.62-.06-.76-.04-.14-.1-.24-.19-.31-.05-.04-.11-.06-.19-.06-.12,0-.22.06-.29.17-.13.2-.2.48-.2.83v.12h.93Z"/>
        <path class="cls-8" d="M226.82,25.3v.41c.16-.18.32-.31.47-.39s.31-.12.49-.12c.21,0,.38.06.52.17s.23.26.27.43c.04.13.05.38.05.75v1.24c0,.25.02.4.07.46.04.06.14.1.28.11v.12h-1.62v-.12c.12-.02.21-.07.26-.15.04-.06.05-.2.05-.42v-1.42c0-.26-.01-.43-.03-.5s-.06-.12-.1-.16c-.05-.04-.1-.06-.16-.06-.2,0-.38.14-.55.42v1.71c0,.24.02.39.07.46.04.06.13.1.25.12v.12h-1.62v-.12c.13-.01.23-.06.29-.13.04-.05.06-.2.06-.44v-1.8c0-.24-.02-.39-.07-.45-.04-.06-.14-.1-.28-.12v-.13h1.3Z"/>
        <path class="cls-8" d="M230.68,24.13v1.17h.76v.34h-.76v1.97c0,.18,0,.3.03.36.02.05.05.1.09.13s.08.05.12.05c.15,0,.29-.11.42-.34l.1.08c-.18.44-.48.66-.9.66-.2,0-.37-.06-.51-.17-.14-.11-.23-.24-.27-.38-.02-.08-.03-.29-.03-.63v-1.73h-.42v-.12c.29-.2.53-.42.73-.64.2-.22.38-.47.53-.75h.11Z"/>
        <path class="cls-8" d="M205.07,36.77v.13h-2.42v-.13h.15c.13,0,.24-.02.32-.07.06-.03.1-.09.14-.16.02-.05.04-.2.04-.43v-3.05c0-.24-.01-.38-.04-.44s-.08-.11-.15-.16c-.08-.04-.18-.07-.31-.07h-.15v-.13h2.42v.13h-.15c-.13,0-.24.02-.32.07-.06.03-.11.09-.14.16-.02.05-.04.2-.04.43v3.05c0,.24.01.38.04.44.03.06.08.11.15.16.08.04.18.07.31.07h.15Z"/>
        <path class="cls-8" d="M206.77,33.71v.41c.16-.18.32-.31.47-.39s.31-.12.49-.12c.21,0,.38.06.52.17s.23.26.27.43c.04.13.05.38.05.75v1.24c0,.25.02.4.07.46.04.06.14.1.28.11v.12h-1.62v-.12c.12-.02.21-.07.26-.15.04-.06.05-.2.05-.42v-1.42c0-.26-.01-.43-.03-.5s-.06-.12-.1-.16c-.05-.04-.1-.06-.16-.06-.2,0-.38.14-.55.42v1.71c0,.24.02.39.07.46.04.06.13.1.25.12v.12h-1.62v-.12c.13-.01.23-.06.29-.13.04-.05.06-.2.06-.44v-1.8c0-.24-.02-.39-.07-.45-.04-.06-.14-.1-.28-.12v-.13h1.3Z"/>
        <path class="cls-8" d="M210.76,34.04v2.22c0,.21.02.35.07.4.07.08.21.12.4.12v.12h-1.88v-.12c.14,0,.25-.02.31-.05.06-.03.1-.07.12-.13s.03-.17.03-.34v-2.22h-.46v-.33h.46v-.4c0-.33.12-.6.36-.82.24-.22.57-.33.98-.33.28,0,.49.05.62.16.14.11.2.22.2.35,0,.1-.04.19-.13.27-.08.08-.2.11-.33.11-.12,0-.21-.03-.28-.09-.07-.06-.1-.13-.1-.21,0-.02,0-.06.02-.13,0-.04.01-.08.01-.11,0-.05-.01-.08-.04-.11-.04-.04-.08-.05-.13-.05-.07,0-.12.03-.17.08-.04.05-.07.14-.07.26v.6s0,.41,0,.41h.47v.33h-.47Z"/>
        <path class="cls-8" d="M214.4,35.19h-1.75c.02.42.13.76.34,1.01.16.19.35.28.57.28.14,0,.26-.04.37-.11s.23-.21.36-.41l.12.08c-.17.35-.36.6-.57.75-.21.15-.45.22-.73.22-.47,0-.83-.18-1.08-.55-.2-.29-.29-.66-.29-1.09,0-.53.14-.96.43-1.27.29-.32.63-.47,1.01-.47.32,0,.6.13.84.4.24.27.37.66.38,1.18ZM213.56,34.96c0-.37-.02-.62-.06-.76-.04-.14-.1-.24-.19-.31-.05-.04-.11-.06-.19-.06-.12,0-.22.06-.29.17-.13.2-.2.48-.2.83v.12h.93Z"/>
        <path class="cls-8" d="M216.12,33.71v.72c.21-.33.4-.55.56-.66s.31-.16.46-.16c.13,0,.23.04.31.12.08.08.11.19.11.33,0,.15-.04.27-.11.36-.07.08-.16.13-.27.13-.12,0-.23-.04-.31-.12s-.14-.12-.16-.13c-.02-.01-.05-.02-.08-.02-.07,0-.13.03-.19.08-.09.08-.16.19-.21.33-.07.22-.11.46-.11.73v.93c0,.13.01.21.03.25.03.06.07.11.12.13.05.03.14.05.27.05v.12h-1.73v-.12c.14-.01.23-.05.28-.11.05-.07.07-.24.07-.51v-1.77c0-.18,0-.3-.03-.35-.02-.06-.06-.11-.1-.14s-.12-.05-.23-.06v-.13h1.31Z"/>
        <path class="cls-8" d="M220.48,35.19h-1.75c.02.42.13.76.34,1.01.16.19.35.28.57.28.14,0,.26-.04.37-.11s.23-.21.36-.41l.12.08c-.17.35-.36.6-.57.75-.21.15-.45.22-.73.22-.47,0-.83-.18-1.08-.55-.2-.29-.29-.66-.29-1.09,0-.53.14-.96.43-1.27.29-.32.63-.47,1.01-.47.32,0,.6.13.84.4.24.27.37.66.38,1.18ZM219.64,34.96c0-.37-.02-.62-.06-.76-.04-.14-.1-.24-.19-.31-.05-.04-.11-.06-.19-.06-.12,0-.22.06-.29.17-.13.2-.2.48-.2.83v.12h.93Z"/>
        <path class="cls-8" d="M222.19,33.71v.41c.16-.18.32-.31.47-.39s.31-.12.49-.12c.21,0,.38.06.52.17s.23.26.27.43c.04.13.05.38.05.75v1.24c0,.25.02.4.07.46.04.06.14.1.28.11v.12h-1.62v-.12c.12-.02.21-.07.26-.15.04-.06.05-.2.05-.42v-1.42c0-.26-.01-.43-.03-.5s-.06-.12-.1-.16c-.05-.04-.1-.06-.16-.06-.2,0-.38.14-.55.42v1.71c0,.24.02.39.07.46.04.06.13.1.25.12v.12h-1.62v-.12c.13-.01.23-.06.29-.13.04-.05.06-.2.06-.44v-1.8c0-.24-.02-.39-.07-.45-.04-.06-.14-.1-.28-.12v-.13h1.3Z"/>
        <path class="cls-8" d="M227.39,36.08l.11.08c-.15.28-.34.49-.56.63-.22.14-.46.21-.72.21-.43,0-.77-.16-1.02-.48-.26-.32-.38-.71-.38-1.16s.12-.82.35-1.15c.28-.4.67-.6,1.16-.6.33,0,.59.08.79.25.2.17.29.35.29.56,0,.13-.04.23-.12.31-.08.08-.18.12-.31.12-.13,0-.25-.04-.33-.13-.09-.09-.14-.25-.16-.47-.01-.14-.05-.24-.1-.3s-.11-.09-.18-.09c-.11,0-.2.06-.28.17-.12.18-.18.44-.18.81,0,.3.05.59.14.86s.23.48.39.61c.13.1.27.15.44.15.11,0,.22-.03.32-.08s.22-.15.36-.3Z"/>
        <path class="cls-8" d="M230.59,35.19h-1.75c.02.42.13.76.34,1.01.16.19.35.28.57.28.14,0,.26-.04.37-.11s.23-.21.36-.41l.12.08c-.17.35-.36.6-.57.75-.21.15-.45.22-.73.22-.47,0-.83-.18-1.08-.55-.2-.29-.29-.66-.29-1.09,0-.53.14-.96.43-1.27.29-.32.63-.47,1.01-.47.32,0,.6.13.84.4.24.27.37.66.38,1.18ZM229.75,34.96c0-.37-.02-.62-.06-.76-.04-.14-.1-.24-.19-.31-.05-.04-.11-.06-.19-.06-.12,0-.22.06-.29.17-.13.2-.2.48-.2.83v.12h.93Z"/>
      </g>
    </g>
    <g id="TransGraph">
      <rect class="cls-29" x="186.25" y="77.72" width="209" height="60" rx="5.67" ry="5.67"/>
      <g>
        <line class="cls-47" x1="337.45" y1="84.06" x2="336.46" y2="131.49"/>
        <g>
          <line class="cls-18" x1="337.45" y1="84.06" x2="337.42" y2="85.56"/>
          <line class="cls-22" x1="337.36" y1="88.52" x2="336.52" y2="128.51"/>
          <line class="cls-18" x1="336.49" y1="129.99" x2="336.46" y2="131.49"/>
        </g>
      </g>
      <rect class="cls-19" x="344.25" y="81.72" width="44" height="24" rx="2.83" ry="2.83"/>
      <text class="cls-5" transform="translate(354.87 92.03)"><tspan x="0" y="0">Positive </tspan><tspan x="-4.96" y="8.4">Constraints</tspan></text>
      <text class="cls-5" transform="translate(353.42 118.45)"><tspan x="0" y="0">Negative </tspan><tspan x="-3.6" y="8.4">Constraints</tspan></text>
      <text class="cls-5" transform="translate(230.75 86.62)"><tspan class="cls-37" x="0" y="0">T</tspan><tspan x="4.15" y="0">ransfe</tspan><tspan class="cls-57" x="22.81" y="0">r</tspan><tspan x="25.79" y="0" xml:space="preserve"> Graph</tspan></text>
      <g>
        <circle class="cls-6" cx="193.99" cy="85.69" r="5"/>
        <text class="cls-46" transform="translate(191.99 87.71)"><tspan x="0" y="0">1</tspan></text>
      </g>
      <g>
        <circle class="cls-6" cx="193.99" cy="61.66" r="5"/>
        <text class="cls-46" transform="translate(191.99 63.68)"><tspan x="0" y="0">2</tspan></text>
      </g>
      <g>
        <circle class="cls-7" cx="416.94" cy="129.96" r="5"/>
        <text class="cls-46" transform="translate(414.94 131.97)"><tspan x="0" y="0">3</tspan></text>
      </g>
      <rect class="cls-19" x="344.25" y="108.72" width="44" height="24" rx="2.83" ry="2.83"/>
    </g>
    <g id="Intent-info">
      <g>
        <rect class="cls-47" x="257.25" y="14.72" width="132" height="30" rx="2.83" ry="2.83"/>
        <rect class="cls-24" x="257.25" y="14.72" width="132" height="30" rx="2.83" ry="2.83"/>
      </g>
      <text id="public_static_String_migrate_String_xml_Document_xmlDoc_try_SAXReader_reader_new_SAXRea-5" data-name="public static String migrate(String xml) { 	Document xmlDoc; 	try { 		SAXReader reader = new SAXRea" class="cls-15" transform="translate(262.65 23.21)"><tspan class="cls-48" x="0" y="0">Defect root cause: </tspan><tspan class="cls-3" x="73.12" y="0">The original code </tspan><tspan class="cls-43"><tspan class="cls-1" x="-.05" y="6">used SAXReader without disabling DTD ...</tspan><tspan class="cls-49" x="109.91" y="6"> </tspan></tspan></text>
      <text id="public_static_String_migrate_String_xml_Document_xmlDoc_try_SAXReader_reader_new_SAXRea-6" data-name="public static String migrate(String xml) { 	Document xmlDoc; 	try { 		SAXReader reader = new SAXRea" class="cls-15" transform="translate(262.22 36.29)"><tspan class="cls-48" x="0" y="0">Fix intent: </tspan><tspan class="cls-3" x="46.18" y="0">This explicitly disables DTD </tspan><tspan class="cls-3"><tspan x="0" y="6">processing, preventing the parser from ...</tspan></tspan></text>
    </g>
    <g id="DSL">
      <text class="cls-5" transform="translate(418.38 34.24) rotate(.65) scale(1.04 1) skewX(-.05)"><tspan x="0" y="0">DS</tspan><tspan class="cls-56" x="8.95" y="0">L</tspan></text>
      <text class="cls-5" transform="translate(409.93 73.72) rotate(.65) scale(1.04 1) skewX(-.05)"><tspan class="cls-44" x="0" y="0">T</tspan><tspan x="4.15" y="0">ranslate</tspan><tspan class="cls-45" x="28.26" y="0">r</tspan></text>
      <text class="cls-5" transform="translate(414.28 121.41) rotate(.65) scale(1.04 1) skewX(-.05)"><tspan x="0" y="0">Checke</tspan><tspan class="cls-45" x="22.16" y="0">r</tspan></text>
      <path class="cls-36" d="M431.95,107.91l2.28,2.28,4.56-4.56M429.75,90.22h-5.44c-1.24,0-1.87,0-2.34.24-.42.21-.76.55-.97.97-.24.48-.24,1.1-.24,2.34v12.89c0,1.24,0,1.87.24,2.34.21.42.55.76.97.97.48.24,1.1.24,2.34.24h3.44M429.67,89.66l6.84,6.84M429.75,90.22v5.17c0,.64,0,.96.12,1.2.11.21.28.39.5.5.24.12.56.12,1.2.12h5.17M436.75,97.22v4M424.75,105.22h3M424.75,101.22h7M424.75,97.22h1"/>
      <g>
        <path class="cls-52" d="M433.59,61.07s.02-.06.16-.1v-9.43c-.14-1.51-1.36-2.73-2.87-2.32h-3.9l1.4-1.57c.32-.27.36-.73.1-1.05-.27-.32-.73-.36-1.05-.1l-2.98,2.48c-.17.14-.27.35-.27.58s.1.43.27.58l2.98,2.48c.14.12.31.17.48.17.21,0,.43-.09.58-.27.27-.32.22-.78-.1-1.05l-1.4-1.24h3.9c.68.08,1.24.64,1.87,1.32v9.43c-.63.04-.61.07-.61.1-1.29.33-2.25,1.49-2.25,2.88,0,1.65,1.33,2.98,2.98,2.98s2.98-1.33,2.98-2.98c0-1.39-.96-2.55-2.25-2.88Z"/>
        <path class="cls-52" d="M427.38,63.87l-2.98-2.48c-.32-.27-.78-.22-1.05.1-.27.32-.22.78.1,1.05l1.4,1.68h-3.9c-.68-.52-1.24-1.08-1.2-1.76v-9.43s-.06-.07-.06-.1c1.29-.33,2.25-1.49,2.25-2.88,0-1.65-1.33-2.98-2.98-2.98s-2.98,1.33-2.98,2.98c0,1.39.96,2.55,2.25,2.88,0,.03-.02.06.51.1v9.43c-.53,1.51.69,2.73,2.2,2.76h3.9l-1.4,1.13c-.32.27-.36.73-.1,1.05.15.18.36.27.58.27.17,0,.34-.06.48-.17l2.98-2.48c.17-.14.27-.35.27-.58s-.1-.43-.27-.58Z"/>
      </g>
    </g>
    <g id="Top-down-abstraction">
      <g>
        <rect class="cls-8" x="224.75" y="52.22" width="162.1" height="14" rx="2.83" ry="2.83"/>
        <text class="cls-5" transform="translate(233.79 61.42)"><tspan x="0" y="0">Interactive Constraint Identification</tspan><tspan class="cls-57" x="108.88" y="0" xml:space="preserve"> W</tspan><tspan x="117.37" y="0">ith LLM </tspan></text>
      </g>
      <g>
        <rect class="cls-31" x="224.75" y="52.22" width="162.1" height="14" rx="2.83" ry="2.83"/>
        <text class="cls-5" transform="translate(233.79 61.42)"><tspan x="0" y="0">Interactive Constraint Identification</tspan><tspan class="cls-57" x="108.88" y="0" xml:space="preserve"> W</tspan><tspan x="117.37" y="0">ith LLM </tspan></text>
      </g>
    </g>
    <g>
      <line class="cls-32" x1="170.75" y1="30.72" x2="181.73" y2="30.72"/>
      <path class="cls-8" d="M184.75,30.72c-1.42.53-3.18,1.43-4.27,2.38l.86-2.38-.86-2.38c1.09.95,2.85,1.85,4.27,2.38Z"/>
    </g>
    <g>
      <line class="cls-32" x1="170.75" y1="97.72" x2="181.73" y2="97.72"/>
      <path class="cls-8" d="M184.75,97.72c-1.42.53-3.18,1.43-4.27,2.38l.86-2.38-.86-2.38c1.09.95,2.85,1.85,4.27,2.38Z"/>
    </g>
    <g>
      <line class="cls-8" x1="320.25" y1="45.22" x2="320.25" y2="52.22"/>
      <g>
        <line class="cls-32" x1="320.25" y1="45.22" x2="320.25" y2="49.21"/>
        <path class="cls-8" d="M320.25,52.22c-.53-1.42-1.43-3.18-2.38-4.27l2.38.86,2.38-.86c-.95,1.09-1.85,2.85-2.38,4.27Z"/>
      </g>
    </g>
    <g>
      <line class="cls-8" x1="427.25" y1="36.22" x2="427.25" y2="45.22"/>
      <g>
        <line class="cls-32" x1="427.25" y1="36.22" x2="427.25" y2="42.21"/>
        <path class="cls-8" d="M427.25,45.22c-.53-1.42-1.43-3.18-2.38-4.27l2.38.86,2.38-.86c-.95,1.09-1.85,2.85-2.38,4.27Z"/>
      </g>
    </g>
    <g>
      <line class="cls-8" x1="428.25" y1="76.22" x2="428.25" y2="87.22"/>
      <g>
        <line class="cls-32" x1="428.25" y1="76.22" x2="428.25" y2="84.21"/>
        <path class="cls-8" d="M428.25,87.22c-.53-1.42-1.43-3.18-2.38-4.27l2.38.86,2.38-.86c-.95,1.09-1.85,2.85-2.38,4.27Z"/>
      </g>
    </g>
    <g>
      <line class="cls-8" x1="248.25" y1="74.22" x2="248.25" y2="66.22"/>
      <g>
        <line class="cls-32" x1="248.25" y1="74.22" x2="248.25" y2="69.24"/>
        <path class="cls-8" d="M248.25,66.22c.53,1.42,1.43,3.18,2.38,4.27l-2.38-.86-2.38.86c.95-1.09,1.85-2.85,2.38-4.27Z"/>
      </g>
    </g>
    <g>
      <line class="cls-32" x1="244.75" y1="29.72" x2="251.73" y2="29.72"/>
      <path class="cls-8" d="M254.75,29.72c-1.42.53-3.18,1.43-4.27,2.38l.86-2.38-.86-2.38c1.09.95,2.85,1.85,4.27,2.38Z"/>
    </g>
    <g>
      <line class="cls-8" x1="337.25" y1="66.22" x2="337.25" y2="75.22"/>
      <g>
        <line class="cls-32" x1="337.25" y1="66.22" x2="337.25" y2="72.21"/>
        <path class="cls-8" d="M337.25,75.22c-.53-1.42-1.43-3.18-2.38-4.27l2.38.86,2.38-.86c-.95,1.09-1.85,2.85-2.38,4.27Z"/>
      </g>
    </g>
    <g class="cls-55">
      <path class="cls-51" d="M426.08,7.22c0-.76.6-1.3,1.29-1.2.57.08.95.62.38,1.19v2.08c.57.57.18,1.11-.38,1.19-.69.1-1.29-1.27-1.29-1.27h-2.33v9.28c.08.53-.25,1.04-.77,1.16-.74.17-1.39-.39-1.23-1.11v-9.33h-2.4s-.6,1.37-1.29,1.27c-.57-.08-.95-.62-1.31-1.19v-2.08c.35-.57.74-1.11,1.31-1.19.69-.1,1.29.44,1.29,1.2h6.73ZM427.4,15.22h6.65c.57-.23,1.11.15,1.19.72.1.69-.44,1.29-1.11,1.28h-6.65c-.57,0-1.11-.38-1.19-.95-.1-.69.44-1.29,1.11-1.29v.23ZM431.94,8.22h2.16c.57.03,1.11.42,1.19.99.1.69-.44,1.29-1.11,1.01h-2.16c-.57.28-1.11-.11-1.19-.68-.1-.69.44-1.29,1.11-1.29v-.03ZM418.33,22.22h15.62c.57.06,1.11.45,1.19,1.01.1.69-.44,1.29-1.11.99h-15.62c-.57.3-1.11-.09-1.19-.65-.1-.69.44-1.29,1.11-1.29v-.06Z"/>
    </g>
    <g>
      <g>
        <polyline class="cls-32" points="408.73 58.77 400.25 58.9 400.25 95.72 390.75 95.72"/>
        <path class="cls-8" d="M411.75,58.72c-1.43-.5-3.2-1.38-4.31-2.31l.9,2.36-.82,2.39c1.08-.97,2.82-1.89,4.24-2.44Z"/>
      </g>
      <polyline class="cls-32" points="400.25 95.22 400.25 121.72 390.75 121.72"/>
    </g>
  </g>
  <g id="TransGraph-2" data-name="TransGraph">
    <path class="cls-25" d="M285.9,128.93c0,3.37-2.73,6.1-6.1,6.1-2.32,0-4.34-1.3-5.37-3.21-.46-.86-.73-1.85-.73-2.89,0-3.37,2.73-6.1,6.1-6.1.4,0,.8.04,1.18.11,1.39.27,2.61,1.01,3.48,2.05s1.44,2.44,1.44,3.94Z"/>
    <path class="cls-25" d="M316.37,112.62c0,2.21-1.17,4.14-2.93,5.21-.92.56-2.01.89-3.17.89-.84,0-1.64-.17-2.37-.48-2.19-.93-3.73-3.09-3.73-5.62,0-1,.24-1.94.66-2.77.63-1.24,1.68-2.24,2.96-2.81.76-.34,1.6-.52,2.48-.52,3.37,0,6.1,2.73,6.1,6.1Z"/>
    <path class="cls-25" d="M316.37,112.62c0,2.21-1.17,4.14-2.93,5.21-.92.56-2.01.89-3.17.89-.84,0-1.64-.17-2.37-.48-2.19-.93-3.73-3.09-3.73-5.62,0-1,.24-1.94.66-2.77.63-1.24,1.68-2.24,2.96-2.81.76-.34,1.6-.52,2.48-.52,3.37,0,6.1,2.73,6.1,6.1Z"/>
    <path class="cls-26" d="M308.42,129.16c0,3.37-2.73,6.1-6.1,6.1s-6.1-2.73-6.1-6.1,2.73-6.1,6.1-6.1c.53,0,1.04.07,1.53.19,2.63.68,4.58,3.07,4.58,5.91Z"/>
    <rect class="cls-53" x="232.75" y="124.22" width="26" height="10" rx="2.83" ry="2.83"/>
    <text class="cls-9" transform="translate(238.22 131.25)"><tspan x="0" y="0">Move</tspan></text>
    <path class="cls-54" d="M329.75,88.43c0,1.54-1.25,2.8-2.8,2.8h-20.41c-1.54,0-2.8-1.25-2.8-2.8v-4.41c0-1.54,1.25-2.8,2.8-2.8h20.41c1.54,0,2.8,1.25,2.8,2.8v4.41Z"/>
    <path class="cls-54" d="M329.75,88.43c0,1.54-1.25,2.8-2.8,2.8h-20.41c-1.54,0-2.8-1.25-2.8-2.8v-4.41c0-1.54,1.25-2.8,2.8-2.8h20.41c1.54,0,2.8,1.25,2.8,2.8v4.41Z"/>
    <text class="cls-9" transform="translate(309.21 88.02)"><tspan x="0" y="0">Insert</tspan></text>
    <text class="cls-9" transform="translate(309.21 88.02)"><tspan x="0" y="0">Insert</tspan></text>
    <path class="cls-25" d="M218.88,100.92c0,3.37-2.73,6.1-6.1,6.1-1.68,0-3.21-.68-4.31-1.79s-1.79-2.63-1.79-4.31c0-3.37,2.73-6.1,6.1-6.1.78,0,1.52.15,2.21.41,2.28.89,3.89,3.1,3.89,5.69Z"/>
    <path class="cls-25" d="M227.76,85.14c0,1.68-.68,3.21-1.79,4.31s-2.63,1.79-4.31,1.79-3.17-.66-4.27-1.74-1.83-2.65-1.83-4.36c0-3.37,2.73-6.1,6.1-6.1s6.1,2.73,6.1,6.1Z"/>
    <path class="cls-27" d="M240.56,101.49c0,1.68-.68,3.21-1.79,4.31s-2.63,1.79-4.31,1.79c-1.41,0-2.71-.48-3.75-1.29-1.43-1.12-2.35-2.86-2.35-4.81,0-2.27,1.23-4.24,3.07-5.29.89-.51,1.93-.81,3.03-.81,3.37,0,6.1,2.73,6.1,6.1Z"/>
    <path class="cls-25" d="M211.43,115.97c0,3.37-2.73,6.1-6.1,6.1s-6.1-2.73-6.1-6.1,2.73-6.1,6.1-6.1c.57,0,1.13.08,1.65.23,2.57.72,4.45,3.08,4.45,5.88Z"/>
    <path class="cls-26" d="M232.9,117.74c0,2.53-1.54,4.7-3.73,5.62-.73.31-1.53.48-2.37.48-3.37,0-6.1-2.73-6.1-6.1,0-1.61.62-3.07,1.64-4.16,1.11-1.2,2.7-1.94,4.47-1.94.61,0,1.21.09,1.76.26,2.51.76,4.34,3.09,4.34,5.84Z"/>
    <line class="cls-25" x1="217.39" y1="89.49" x2="214.99" y2="95.23"/>
    <line class="cls-25" x1="225.97" y1="89.45" x2="231.43" y2="96.19"/>
    <line class="cls-25" x1="206.98" y1="110.1" x2="208.46" y2="105.23"/>
    <line class="cls-25" x1="230.71" y1="106.3" x2="228.57" y2="111.9"/>
    <path class="cls-25" d="M282.36,100.67c0,3.37-2.73,6.1-6.1,6.1-1.68,0-3.21-.68-4.31-1.79s-1.79-2.63-1.79-4.31c0-3.37,2.73-6.1,6.1-6.1.78,0,1.52.15,2.21.41,2.28.89,3.89,3.1,3.89,5.69Z"/>
    <path class="cls-25" d="M282.36,100.67c0,3.37-2.73,6.1-6.1,6.1-1.68,0-3.21-.68-4.31-1.79s-1.79-2.63-1.79-4.31c0-3.37,2.73-6.1,6.1-6.1.78,0,1.52.15,2.21.41,2.28.89,3.89,3.1,3.89,5.69Z"/>
    <path class="cls-25" d="M294.11,84.91c0,1.68-.68,3.21-1.79,4.31s-2.63,1.79-4.31,1.79-3.17-.66-4.27-1.74c-1.13-1.11-1.83-2.65-1.83-4.36,0-3.37,2.73-6.1,6.1-6.1s6.1,2.73,6.1,6.1Z"/>
    <path class="cls-25" d="M294.11,84.91c0,1.68-.68,3.21-1.79,4.31s-2.63,1.79-4.31,1.79-3.17-.66-4.27-1.74c-1.13-1.11-1.83-2.65-1.83-4.36,0-3.37,2.73-6.1,6.1-6.1s6.1,2.73,6.1,6.1Z"/>
    <path class="cls-25" d="M304.11,98.75c0,.84-.17,1.64-.48,2.37s-.76,1.39-1.31,1.94c-1.1,1.1-2.63,1.79-4.31,1.79-1.41,0-2.71-.48-3.75-1.29-1.43-1.12-2.35-2.86-2.35-4.81,0-2.27,1.23-4.24,3.07-5.29.89-.51,1.93-.81,3.03-.81,2.97,0,5.44,2.12,5.99,4.92.07.38.11.78.11,1.18Z"/>
    <path class="cls-25" d="M304.11,98.75c0,.84-.17,1.64-.48,2.37s-.76,1.39-1.31,1.94c-1.1,1.1-2.63,1.79-4.31,1.79-1.41,0-2.71-.48-3.75-1.29-1.43-1.12-2.35-2.86-2.35-4.81,0-2.27,1.23-4.24,3.07-5.29.89-.51,1.93-.81,3.03-.81,2.97,0,5.44,2.12,5.99,4.92.07.38.11.78.11,1.18Z"/>
    <path class="cls-25" d="M294.62,113.24c0,2.51-1.51,4.66-3.67,5.6-.74.32-1.56.5-2.43.5-.73,0-1.43-.13-2.07-.36-2.35-.85-4.03-3.1-4.03-5.74,0-1.61.62-3.07,1.64-4.16,1.11-1.2,2.7-1.94,4.47-1.94.61,0,1.21.09,1.76.26,2.51.76,4.34,3.09,4.34,5.84Z"/>
    <path class="cls-25" d="M294.62,113.24c0,2.51-1.51,4.66-3.67,5.6-.74.32-1.56.5-2.43.5-.73,0-1.43-.13-2.07-.36-2.35-.85-4.03-3.1-4.03-5.74,0-1.61.62-3.07,1.64-4.16,1.11-1.2,2.7-1.94,4.47-1.94.61,0,1.21.09,1.76.26,2.51.76,4.34,3.09,4.34,5.84Z"/>
    <line class="cls-25" x1="283.74" y1="89.27" x2="278.46" y2="94.98"/>
    <line class="cls-25" x1="283.74" y1="89.27" x2="278.46" y2="94.98"/>
    <line class="cls-25" x1="292.32" y1="89.22" x2="294.98" y2="93.46"/>
    <line class="cls-25" x1="292.32" y1="89.22" x2="294.98" y2="93.46"/>
    <line class="cls-25" x1="294.26" y1="103.57" x2="290.29" y2="107.4"/>
    <line class="cls-25" x1="284.72" y1="117.93" x2="280.97" y2="122.94"/>
    <line class="cls-33" x1="304.76" y1="86.17" x2="294.11" y2="84.91"/>
    <line class="cls-33" x1="304.76" y1="86.17" x2="294.11" y2="84.91"/>
    <line class="cls-33" x1="323.73" y1="91.53" x2="315.17" y2="108.53"/>
    <line class="cls-33" x1="323.73" y1="91.53" x2="315.17" y2="108.53"/>
    <line class="cls-25" x1="303.84" y1="123.26" x2="307.9" y2="118.24"/>
    <line class="cls-25" x1="303.84" y1="123.26" x2="307.9" y2="118.24"/>
    <path class="cls-33" d="M205.33,122.08c7.7,5.3,17.57,13.4,27.55,9.76"/>
    <path class="cls-33" d="M258.46,131.84c7.88-.93,15.98-13.3,23.97-18.6"/>
    <path class="cls-33" d="M258.46,131.84c7.88-.93,15.98-13.3,23.97-18.6"/>
    <line class="cls-25" x1="303.63" y1="101.13" x2="307.79" y2="107.04"/>
    <line class="cls-25" x1="303.63" y1="101.13" x2="307.79" y2="107.04"/>
  </g>
</svg>